<svg xmlns="http://www.w3.org/2000/svg" height="1024" preserveAspectRatio="none" style="display: block;" version="1.1" viewBox="0 0 2048 2048" width="1024">
<path d="M 0 0 L 2048 0 L 2048 2048 L 1820.02 2048 L 679.809 2048 L 0 2048 L 0 0 z" fill="rgb(254,103,95)" transform="translate(0,0)"></path>
<path d="M 498.861 421.802 C 506.444 410.334 568.283 367.279 584.935 360.488 C 586.391 359.894 590.421 360.693 592.239 361.071 C 597.234 356.508 604.164 349.087 610.562 348.647 C 619.469 348.035 632.105 339.807 639.576 338.422 L 640.969 339.961 C 644.639 337.864 641.785 337.25 645.013 335.762 C 650.455 333.254 658.769 334.505 664.537 333.038 C 670.234 331.588 661.871 330.902 668.502 329.258 L 671.413 330.936 C 671.593 329.017 671.535 329.997 671.579 327.996 C 673.859 328.423 674.534 328.669 676.733 329.454 C 683.051 328.071 680.517 328.073 685.022 324.43 C 685.802 323.8 695.748 323.818 697.305 323.581 C 700.415 323.109 712.373 325.111 713.562 323.292 C 714.203 322.312 713.943 322.67 715.624 321.043 C 723.568 321.952 716.515 327.198 728.501 321.108 C 733.622 321.383 736.753 321.478 741.851 322.563 L 741.524 325.012 L 742.838 325.531 L 743.278 324.64 C 743.871 323.459 744.436 322.447 745.083 321.302 C 753.695 320.259 756.701 330.012 763.026 326.548 L 765.521 329.369 L 766.63 328.86 L 766.7 327.142 C 783.162 326.864 815.975 356.68 824.106 354.903 L 824.393 355.839 L 821.637 358.737 L 822.157 359.711 C 825.625 358.955 823.969 359.638 826.985 356.902 L 827.281 355.776 C 830.019 345.738 836.777 328.345 840.827 318.482 C 845.118 316.336 846.987 315.616 848.764 310.829 L 848.444 309.777 L 848.903 309.314 L 848.846 309.294 L 843.97 314.473 L 843.177 314.103 C 851.68 291.648 889.143 262.282 912.334 255.38 C 916.867 254.031 928.094 252.278 931.371 250.289 L 929.23 249.322 C 933.777 247.438 955.449 240.133 958.99 241.432 L 961.561 244.566 L 963.316 244.298 L 964.474 240.961 C 970.802 239.027 969.749 241.56 973.836 240.462 C 978.474 236.437 978.442 236.615 984.897 236.784 C 991.865 236.966 998.625 237.186 1005.38 239.117 C 1006.53 238.747 1012.43 236.888 1012.86 237.047 C 1021.79 240.374 1020.3 242.924 1029.08 238.373 L 1030.58 238.75 L 1030.62 241.496 C 1036.69 241.258 1030.32 238.079 1035.96 239.517 L 1034.34 241.966 C 1039.51 244.109 1051.83 234.967 1052.55 248.192 C 1056.13 244.839 1051.9 243.385 1056.24 242.272 C 1057.34 245.303 1056.96 244.183 1056.4 247.832 C 1061.3 246.028 1055.52 245.262 1061.59 244.791 C 1062.88 246.029 1064.13 247.303 1065.34 248.612 C 1066.27 246.143 1065.44 246.901 1067.43 245.838 L 1069.12 247.05 C 1069.51 250.266 1069.54 250.773 1069.34 254.001 L 1070.48 253.787 L 1072.06 248.971 C 1075.02 247.888 1087.73 252.516 1091.35 254.149 C 1095.34 255.823 1098.13 257.739 1101.24 260.584 C 1106.01 264.945 1114.18 267.371 1119.74 270.539 C 1146.55 285.803 1161.92 314.091 1167.62 343.671 C 1168.38 347.655 1168.91 354.653 1170.51 357.967 C 1174.37 356.609 1174.64 353.296 1175.54 349.517 C 1177.89 348.707 1177.94 348.99 1180.43 349.631 C 1181.09 344.798 1174.39 347.886 1181.93 340.604 C 1184.33 341.106 1183.19 340.554 1184.97 343.221 L 1185.81 342.045 L 1184.19 337.952 L 1185.4 336.357 L 1188.43 336.697 L 1188.91 335.526 L 1186.9 333.442 C 1191.39 325.948 1199.4 327.704 1199.19 320.64 C 1204.32 318.666 1203.57 324.641 1205.59 316.03 C 1211.45 309.769 1216.89 316.98 1215.01 307.804 L 1216.95 306.469 C 1221.91 307.908 1219.15 307.779 1224.69 304.997 C 1230.41 302.128 1236.69 297.658 1242.63 295.486 C 1244.04 296.501 1243.45 295.796 1244.1 297.807 C 1251.23 296.978 1248.42 289.415 1255.6 293.798 C 1257.1 290.962 1255.87 291.535 1259.11 290.422 C 1266.51 287.885 1274.5 288.423 1281.54 287.406 C 1303.37 284.257 1327.25 284.715 1349.3 287.403 C 1369.93 289.917 1390.92 299.026 1410.57 305.447 C 1411.57 307.15 1412.37 308.602 1413.87 309.916 C 1416.72 309.929 1417.49 309.681 1420.24 309.141 C 1425.21 312.134 1425.58 314.816 1429.62 315.508 L 1429.56 313.216 C 1433.63 315.113 1431.83 317.135 1432.97 317.971 C 1437.94 321.604 1443.08 321.745 1448.22 325.679 L 1448.55 326.649 L 1445.27 326.188 C 1447.18 328.496 1450.22 330.836 1452.57 332.796 C 1454.45 331.822 1453.47 332.22 1455.49 331.602 C 1472.04 342.382 1500 374.025 1509.59 392.243 C 1509.17 395.788 1507.7 400.531 1508.66 402.885 C 1509.71 401.233 1510.49 400.02 1511.99 398.745 C 1518.16 404.686 1522.32 438.688 1521.89 448.223 C 1521.39 459.721 1514.58 483.986 1511.46 495.588 C 1507.9 498.41 1507.45 497.754 1506.63 501.19 L 1508.49 503.584 C 1510.53 502.348 1509.83 502.7 1511.19 500.257 C 1511.55 500.721 1512.49 502.771 1512.79 503.393 L 1514.48 503.108 C 1514.53 500.729 1514.59 501.321 1514.19 499.15 L 1515.65 499.307 L 1517.62 502.12 L 1519.39 501.28 L 1520.29 497.16 C 1525.63 496.666 1520.54 500.895 1525.26 498.037 L 1526.29 495.387 C 1529.16 495.449 1527.75 495.237 1530.67 497.654 C 1531.21 495.077 1531.11 496.379 1530.29 493.63 C 1534.71 491.769 1538.46 495.91 1541.81 493.882 L 1542.55 490.766 C 1546.73 493.583 1540.89 493.366 1545.83 494.376 L 1546.67 490.484 L 1547.85 490.485 L 1548.99 493.832 C 1552.56 492.827 1551.7 489.276 1557.37 492.328 L 1558.62 495.036 C 1560.21 492.737 1560.2 492.561 1561.42 490.007 L 1563.43 488.957 C 1569.9 490.998 1564.45 496.638 1573.42 491.658 C 1574.66 490.969 1574.02 491.159 1575.8 491.57 L 1579.09 496.82 C 1582.29 493.211 1576.2 493.091 1581.5 492.233 C 1584.65 493.758 1587.48 495.172 1590.73 496.453 L 1592.92 494.896 C 1598 496.366 1595.18 500.534 1598.47 499.321 L 1598.4 496.371 L 1600.1 495.475 L 1602.29 498.715 C 1606.88 496.429 1600.82 495.389 1606.23 495.469 C 1614.59 503.646 1620.29 501.252 1623.94 504.532 L 1623.46 507.157 L 1624.92 507.462 L 1626.94 505.596 C 1629.79 506.868 1629.22 507.297 1631.09 510.751 C 1633.57 509.781 1632.66 510.234 1634.67 508.179 L 1635.96 508.897 C 1635.44 509.848 1634.93 510.392 1634.94 511.503 C 1643.63 510.994 1645.1 515.905 1651.46 520.828 C 1668.1 533.7 1679.68 548.608 1689.79 566.94 C 1690.16 567.605 1693.43 567.236 1695.22 569.888 C 1693.12 573.055 1693.26 571.516 1693.59 574.523 L 1696.58 574.141 C 1698.64 579.523 1701.87 582.81 1705.5 587.191 C 1704.86 588.72 1704.65 589.193 1703.85 590.72 L 1704.67 591.369 L 1706.6 590.679 C 1719.58 609.397 1749.24 677.905 1751.88 700.321 C 1753.64 702.035 1755.39 703.699 1757.07 705.496 C 1755.32 706.461 1756.16 706.066 1754.58 706.726 C 1756.5 710.503 1757.16 710.133 1756.46 713.299 L 1753.82 715.114 L 1754.34 715.819 L 1757.02 715.684 C 1759.04 718.524 1760.62 723.849 1761.84 727.315 C 1760.85 729.214 1761.08 728.859 1759.82 730.472 L 1760.49 731.457 L 1763.3 730.086 C 1764.59 732.262 1764.24 732.989 1764.39 735.746 C 1767.64 738.497 1770.38 740.038 1770.84 743.897 C 1769.5 743.692 1768.26 743.539 1766.9 743.545 C 1767.51 746.349 1768.46 748.436 1769.52 751.08 L 1768.93 751.909 L 1764.83 751.653 C 1759.15 758.324 1668.3 800.836 1661.45 798.646 L 1660.5 802.797 L 1659.24 803.375 L 1657.24 802.552 L 1656.38 803.688 L 1662.74 809.607 C 1663.04 809.59 1663.35 809.566 1663.66 809.554 C 1679.53 808.954 1775.7 826.803 1783.51 834.734 C 1786.23 837.486 1786.17 856.551 1786.51 861.478 L 1785.72 862.229 C 1784.47 863.444 1784.95 862.966 1783.4 864.652 C 1784.94 866.304 1784.47 865.857 1786.38 867.069 C 1787.05 872.274 1787.22 885.963 1787.42 892.198 C 1787.87 906.631 1790.51 926.948 1789.87 940.897 L 1788.16 941.96 L 1787.02 942.695 C 1788.65 946.84 1791.33 951.4 1790.61 955.076 L 1789.56 955.75 C 1788.01 956.767 1788.61 956.356 1787.03 957.545 L 1787.4 958.668 L 1790.65 958.541 C 1793.08 963.269 1789.92 980.036 1789.81 985.677 C 1789.76 988.305 1792.79 985.792 1792.41 989.596 C 1791.64 997.441 1793.95 1016.08 1792.33 1022.86 L 1790.13 1024.56 C 1790.23 1027.57 1791.72 1029.13 1793.43 1031.68 C 1793.03 1039.73 1792.06 1046.45 1792.13 1054.63 C 1792.29 1070.42 1794.89 1083.63 1788.92 1098.49 L 1789.58 1099.2 L 1791.7 1098.58 C 1791.25 1104.48 1790.46 1110.66 1789.09 1116.55 C 1789.09 1116.56 1791.8 1121.9 1792.02 1122.33 C 1792.33 1122.94 1790.52 1124.6 1790.06 1125.08 C 1791.44 1135.06 1789.86 1149.94 1789.3 1160.36 C 1786.81 1160.47 1787.92 1160.32 1785.93 1160.75 L 1786.16 1162.37 L 1788.74 1164 C 1788.72 1168.01 1788.78 1181.41 1786.72 1184.13 L 1784.56 1184.39 L 1785.19 1185.28 L 1786.5 1185.31 C 1787.62 1190.66 1787.61 1189.78 1786.24 1194.66 C 1785.12 1198.65 1788.29 1203.21 1786.97 1208.43 L 1784.01 1209.05 C 1783.22 1218.93 1790.13 1212.84 1782.51 1228.95 C 1783.36 1229.7 1784.18 1230.48 1784.99 1231.28 L 1784.32 1233.11 L 1781.75 1233.75 C 1781.98 1236.73 1783.38 1238.3 1785.01 1240.83 C 1784.49 1247.71 1782.2 1240.91 1782.33 1245.15 C 1782.47 1249.4 1782.61 1258.62 1782.56 1262.7 L 1779.41 1262.08 C 1781.33 1266.41 1782.82 1261.4 1782.71 1266.34 L 1780.2 1268.13 C 1781.33 1270.39 1781.09 1269.91 1782.68 1271.89 C 1781.15 1274.08 1779.25 1275.46 1777.21 1277.2 C 1778.19 1280.5 1779.28 1281.62 1781.29 1284.36 C 1781.39 1290.09 1777.61 1287.87 1778.71 1292.47 L 1781.19 1292.5 C 1781.17 1297.12 1777.66 1300.04 1776.21 1303.91 C 1775.5 1305.78 1779.6 1311.51 1777.81 1313.81 L 1775.18 1313.23 C 1774.76 1318.23 1778.16 1315.68 1777.06 1320.54 L 1774.2 1322.64 L 1774.49 1323.76 L 1776.47 1324.65 C 1774.69 1326.43 1775.72 1325.72 1773.04 1326.3 L 1773.06 1327.68 L 1775.32 1329.33 L 1774.88 1330.41 C 1771.79 1338.06 1770.65 1340.04 1777.13 1345.51 L 1777.55 1347.52 C 1776.14 1349.43 1775.7 1349.86 1773.98 1351.52 C 1771.38 1361.32 1772.92 1369.86 1772.64 1379.67 C 1772.53 1383.25 1767.71 1387.15 1768.52 1391.33 L 1770.67 1393.38 L 1769.31 1394.82 L 1767.34 1394.65 C 1767.95 1397.17 1767.8 1396.68 1768.85 1398.99 L 1767.94 1399.75 L 1766.13 1399.5 C 1765.29 1402.81 1766.01 1403.59 1768.01 1406.54 C 1766.18 1409.76 1765.2 1411.14 1764.24 1414.78 C 1767.28 1417.43 1767.38 1416.59 1767.65 1419.59 L 1766.48 1420.29 C 1765.08 1421.16 1764.4 1421.64 1763.11 1422.62 C 1763.02 1422.23 1765.11 1428.05 1765.31 1425.99 C 1765.14 1427.71 1761.49 1435.66 1761.54 1436.16 C 1762.3 1443.29 1765.41 1442.16 1758.36 1447.6 C 1758.5 1451.97 1760.96 1449.47 1760.61 1452.57 C 1759.97 1458.3 1757.5 1464.95 1756.58 1470.54 C 1755.98 1474.2 1760.21 1472.17 1758.02 1479.68 C 1755.49 1488.36 1754.02 1496.66 1754.1 1505.74 L 1750.84 1506.38 L 1750.92 1507.94 C 1752.8 1508.62 1752.69 1508.59 1754.73 1509.02 C 1753.66 1511.61 1752.82 1511.75 1750.45 1513.71 C 1750.32 1519.46 1750.8 1523.96 1749.6 1529.5 C 1747.53 1530.62 1748.38 1530.27 1745.82 1530.36 L 1745.05 1531.96 C 1746.95 1532.38 1746.97 1532.33 1748.91 1532.43 C 1752.84 1540.84 1742 1541.12 1747.41 1548.56 C 1742.75 1568.55 1741.23 1591.2 1737.77 1611.63 C 1733.61 1636.18 1728.73 1660.45 1724.29 1684.95 C 1723.05 1691.81 1723.49 1702.55 1720.89 1706.57 C 1743.12 1704.46 1759.55 1700.8 1778.69 1716.41 C 1801.63 1735.13 1804.53 1768.18 1785.22 1790.49 C 1764.32 1814.63 1727.17 1807.39 1698.86 1806 C 1700.01 1810.82 1696.68 1834.84 1696.64 1843.7 C 1697.63 1862.94 1697.92 1879.23 1699.58 1898.62 C 1701.05 1915.65 1705.4 1949.15 1704.94 1964.76 C 1712.97 1963.71 1769.87 1962.45 1775.11 1965.5 C 1779.14 1972.7 1772.23 1984.44 1766.66 1989.28 C 1770.66 1989.9 1776.84 1990.61 1780.55 1991.88 C 1804.81 2000.25 1819.69 2022.79 1820.02 2048 L 679.809 2048 C 680.611 2012.65 699.145 2003.36 725.98 1989.05 C 724.869 1988.27 723.766 1987.48 722.671 1986.68 C 702.771 1972.12 728.038 1964.04 740.653 1965.36 C 746.03 1965.92 743.622 1963.91 747.437 1967.88 C 749.371 1966.93 749.269 1966.84 750.709 1965.25 C 757.614 1964.37 776.7 1964.56 783.687 1965.39 C 783.927 1950.39 790.964 1934.94 793.682 1921.62 C 796.328 1908.65 808.555 1851.76 804.963 1843.12 L 802.766 1841.44 C 799.851 1835.48 795.546 1813.33 796.643 1807.99 C 764.347 1806.52 734.706 1815.83 710.278 1792.81 C 699.955 1783.13 694.17 1769.56 694.333 1755.4 C 694.399 1739.86 700.972 1727 711.919 1716.41 C 726.662 1702.14 741.616 1700.89 760.849 1701.34 L 761.291 1700.5 C 758.603 1692.08 766.206 1687.72 771.934 1683.15 L 769.353 1682.75 C 766.782 1676.88 780.339 1625.63 782.749 1617.2 C 788.743 1596.22 797.312 1574.68 804.255 1553.88 C 806.62 1552.16 806.926 1551.84 808.939 1549.7 C 808.872 1549.58 807.335 1546.94 807.414 1546.75 C 831.126 1488.2 856.974 1433.4 882.015 1375.19 C 898.166 1337.65 928.844 1294.26 921.534 1250.63 C 920.484 1244.36 917.877 1236.24 916.162 1229.97 L 917.236 1228.46 C 916.636 1227.44 916.954 1227.27 917.039 1225.64 C 915.239 1222.33 912.843 1216.3 910.115 1215.12 L 908.425 1217.93 L 907.41 1217.73 L 906.737 1216.03 L 908.195 1213.45 C 906.622 1210.86 901.707 1202.36 899.669 1200.77 C 895.945 1197.85 893.655 1197.27 889.97 1193.32 L 890.871 1190.43 L 890.073 1189.67 C 887.498 1191.54 888.598 1191.13 885.589 1191.77 C 883.163 1189.06 881.102 1186.85 878.522 1184.29 C 877.168 1185.29 876.378 1185.85 875.007 1186.75 L 873.666 1185.61 L 873.973 1182.46 C 869.84 1180.71 872.452 1184.96 870.216 1183.6 C 859.263 1176.93 850.142 1170.79 837.016 1170.76 C 834.215 1171.19 835.799 1170.56 833.722 1172.43 C 817.495 1187.06 799.668 1199.71 782.422 1213.04 C 725.169 1257.32 667.81 1304.7 599.045 1329.91 C 595.125 1331.34 587.957 1335.56 584.528 1336.24 C 551.066 1342.86 512.285 1352.55 479.882 1337.3 C 478.472 1336.64 472.388 1337.05 470.525 1335.97 C 459.967 1332.64 433.996 1324.03 428.141 1314.71 C 412.606 1324.94 398.712 1319.57 403.048 1300.6 C 373.273 1280.09 346.619 1235.3 339.276 1200.04 C 335.366 1181.27 337.59 1145.22 345.785 1127.71 C 339.797 1121.57 342.103 1116.15 348.29 1111.48 C 355.486 1097.85 366.034 1077.33 375.573 1065.96 C 401.367 1035.23 431.302 1010.97 457.785 980.179 C 508.975 920.951 554.143 856.774 592.619 788.597 C 613.662 751.769 632.782 711.652 651.027 673.248 C 654.529 665.876 663.087 638.944 666.911 636.204 C 660.78 627.416 651.475 618.84 645.793 610.225 C 636.674 596.397 622.717 584.046 613.707 571.131 C 601.384 553.466 588.633 539.483 575.2 523.227 C 559.849 504.651 545.608 483.885 530.651 464.957 C 521.296 452.204 508.965 433.322 498.861 421.802 z" fill="rgb(4,4,6)" transform="translate(0,0)"></path>
<path d="M 666.911 636.204 C 671.629 636.571 680.579 632.218 683.253 629.942 C 691.321 623.075 694.492 627.173 700.488 624.406 L 699.945 621.573 L 701.012 621.124 L 702.953 622.869 L 704.39 622.777 C 704.674 620.795 704.619 621.481 704.728 619.683 L 704.789 618.526 C 707.644 616.926 707.962 616.307 711.057 615.969 L 712.626 618.862 C 715.571 617.947 715.794 617.182 718.23 614.97 L 718.229 613.517 L 718.135 615.085 L 717.918 613.379 L 717.043 613.136 L 716.973 616.344 L 716.49 613.018 L 716.959 613.103 L 717.198 612.329 C 719.308 611.497 718.797 611.703 721.093 611.419 L 723.649 613.681 L 724.957 613.073 L 724.31 611.039 L 724.916 610.036 C 732.44 611.236 744.689 603.401 752.327 600.68 C 767.386 595.315 783.525 590.726 797.866 583.723 C 805.411 580.04 809.344 581.241 816.281 578.74 C 815.428 576.746 815.648 577.772 815.586 575.669 C 820.069 574.94 823.174 576.298 827.411 574.527 L 827.44 570.5 L 829.406 569.61 C 829.983 571.956 829.624 570.81 830.482 573.052 C 834.594 571.128 838.225 568.942 842.149 566.678 C 856.472 568.538 851.249 561.436 861.023 557.866 L 862.785 560.429 L 864.208 560.351 L 865.052 557.023 L 866.138 556.769 L 867.344 559.494 C 869.718 559.602 871.737 556.295 872.305 556.488 C 876.469 557.903 873.584 558.599 877.942 557.458 C 877.502 555.29 877.339 556.299 878.352 554.419 L 881.402 555.601 L 882.176 553.944 L 880.295 550.474 C 882.698 550.122 884.047 552.367 887.398 554.387 C 892.797 553.081 896.586 551.187 901.628 548.953 C 902.866 549.665 903.859 550.254 905.054 550.997 L 907.113 549.394 L 906.899 546.946 C 908.865 545.007 907.726 545.782 910.737 545.203 L 909.143 547.71 L 916.301 546.465 L 916.413 543.076 L 917.87 542.982 C 917.873 545.05 917.657 544.064 918.518 545.942 C 926.525 546.454 927.307 540.309 932.617 539.177 L 932.579 541.255 C 935.476 540.479 936.907 540.171 939.675 538.86 C 948.902 540.487 953.498 546.503 960.303 548.51 C 995.615 558.923 1029.35 572.316 1062.36 588.594 C 1065.95 590.365 1077.44 595.348 1079.91 597.765 L 1080.09 599.471 L 1082.75 601.22 L 1084.71 599.526 C 1089.62 602.25 1103.87 612.677 1107.52 617.039 C 1114.92 625.864 1114.37 622.529 1122.1 627.828 C 1135.43 636.973 1147.31 650.498 1161.07 659.395 C 1162.09 660.094 1163.09 664.324 1163.34 665.606 C 1168.68 665.49 1163.88 661.512 1168.72 664.807 C 1168.05 666.896 1168.56 665.877 1167.05 667.802 C 1168.34 671.207 1169.52 672.09 1171.98 674.717 C 1173.76 674.063 1172.92 674.647 1174.15 672.538 C 1180.22 676.984 1201.21 706.424 1208.28 713.565 C 1210.58 715.887 1224.65 729.302 1224.85 729.629 L 1223.96 730.554 L 1220.83 730.613 C 1222.75 733.262 1224.13 732.874 1227.43 732.926 C 1231.11 737.188 1231.84 738.631 1234.5 743.659 L 1234.13 744.586 L 1231.92 744.55 L 1232.91 746.185 L 1235.95 745.937 C 1238.26 747.949 1238.13 747.783 1239.44 750.557 C 1237.26 750.219 1237.56 749.859 1236.02 750.504 C 1238.53 752.565 1238.49 752.422 1241.58 753.549 C 1242.43 756.815 1244.27 766.137 1245.56 768.338 C 1251.55 778.548 1255.06 789.9 1260.86 800.099 C 1263.03 803.906 1268.78 805.507 1271.16 810.258 C 1270 810.28 1268.93 810.3 1267.76 810.281 C 1267.94 815.392 1281.48 815.427 1277.69 825.707 C 1275.49 821.959 1274.81 820.587 1271.94 817.418 L 1271.04 817.815 C 1272.74 822.093 1273.09 822.583 1275.78 826.389 C 1284.71 837.896 1291.53 850.596 1299.27 862.936 L 1298.68 863.666 L 1296.32 863.818 C 1298.57 869.913 1307.23 873.134 1307.18 880.429 C 1304.34 879.924 1305.01 879.923 1302.31 878.424 C 1305.78 884.948 1313.34 890.448 1313.51 895.421 C 1311.43 894.679 1311.21 894.566 1309.33 893.42 C 1317.75 903.981 1317.75 899.566 1320.48 912.929 L 1319.85 914.425 L 1317.57 913.673 C 1318.23 916.738 1318.16 917.073 1319.69 919.917 C 1321.78 920.176 1322.38 920.206 1324.48 920.143 L 1325.3 921.383 L 1322.97 922.562 C 1325.09 926.485 1327.99 927.127 1329.31 931.45 C 1328.24 932.378 1327.31 933.293 1326.37 934.361 C 1327.47 937.453 1328.19 940.251 1330.15 942.852 C 1331.08 941.003 1331.47 939.893 1332.17 937.938 C 1335.18 938.197 1337 941.488 1338.05 944.195 C 1336.93 947.744 1336.39 949.139 1334.86 952.532 L 1335.95 953.246 L 1338.37 952.191 C 1341.33 955.157 1346.75 971.515 1349.65 975.982 C 1352.7 980.677 1352.41 983.193 1351.25 988.53 L 1352.28 988.868 L 1354.07 986.376 L 1355.38 986.678 C 1359.16 993.194 1358.89 999.758 1359.77 1007.35 L 1361.62 1007.42 C 1362.32 1007.45 1363.01 1007.48 1363.7 1007.52 C 1365.53 1011.82 1365.02 1016.88 1364.6 1021.43 C 1369.84 1030.16 1379.02 1045.56 1381.66 1055.2 C 1383.62 1062.36 1378.33 1063.25 1389.38 1071.86 C 1391.17 1073.26 1388.59 1085.32 1394.49 1086.92 C 1398.8 1089.61 1398.5 1093.6 1399.05 1098.43 C 1400.1 1107.64 1405.34 1110.63 1409.22 1119.72 C 1416.68 1137.17 1419.2 1160.14 1427.93 1176.6 C 1428.74 1178.12 1431.38 1177.89 1431.85 1182.17 L 1428.33 1178.56 L 1427.69 1179.54 C 1429.03 1184.13 1428.7 1183.24 1433.45 1186.68 C 1431.78 1191.55 1431.88 1189.19 1432.86 1194.02 C 1434.69 1195.88 1435.45 1196.08 1437.78 1197.35 C 1438.15 1201.04 1438.48 1204.74 1438.77 1208.45 C 1442.64 1211.44 1446.4 1213.83 1448.12 1218.36 L 1447.53 1219.47 L 1442.91 1217.7 L 1442.04 1218.61 L 1444.68 1225.7 C 1445.34 1227.42 1445.96 1228.43 1446.87 1230.02 L 1447.72 1228.34 L 1449.78 1228.36 C 1452.99 1231.86 1457.53 1241.6 1460.04 1246.39 C 1460.61 1256.8 1460.07 1263.73 1464.01 1274.2 C 1468.15 1277.18 1468.23 1276.19 1469.3 1280.02 C 1466.84 1280.52 1467.84 1280.44 1465.19 1279.64 L 1466.04 1281.3 C 1467.04 1283.31 1467.13 1283.52 1467.24 1285.83 C 1469.53 1287.02 1471.13 1287.67 1473.01 1289.48 L 1470.42 1290.63 C 1469.3 1299.51 1477.88 1301.34 1478.36 1306.25 L 1476.32 1306.56 C 1478.89 1317.49 1487.93 1330.73 1491.91 1341.26 C 1495.82 1351.64 1496.31 1361.94 1503.48 1371.6 L 1504.9 1371.3 L 1505.42 1369.45 C 1503.43 1366.59 1501.63 1365.09 1501.38 1362.14 L 1502.63 1362.48 L 1509.91 1375.49 C 1508.9 1377.89 1508.74 1377.96 1507.12 1380.04 L 1505.58 1380.03 C 1507.43 1384.61 1512.37 1398.75 1515.56 1400.73 C 1518.68 1403.92 1518.4 1404.53 1518.11 1409.21 C 1524.44 1421.93 1532.6 1434.66 1538.04 1447.51 C 1544.46 1462.68 1547.72 1478.91 1556.28 1493.44 C 1559.14 1498.28 1560.31 1505.31 1563.12 1510.32 C 1566.65 1516.53 1572.26 1524.29 1576.41 1530.21 L 1576.09 1530.65 L 1573.36 1528.98 C 1574.35 1532.54 1577.68 1539.02 1579.38 1542.6 L 1581.51 1541.31 C 1583.93 1543.53 1584.44 1543.73 1586.04 1546.66 C 1585.1 1548.53 1584.2 1550.42 1583.36 1552.34 C 1584.93 1555.13 1584.72 1555.07 1587.32 1556.87 C 1589.09 1555.24 1588.53 1554.54 1588.87 1551.35 C 1592.05 1552.89 1592.06 1557.56 1591.9 1560.6 L 1590.75 1562.72 C 1587.8 1562.02 1588.92 1562.47 1586.47 1560.31 C 1587.22 1563.78 1588.74 1566.08 1590.44 1569.2 L 1591.48 1569.73 L 1591.96 1568.08 C 1594.14 1569.53 1597.36 1580.28 1598.57 1583.62 L 1598.03 1584.59 L 1595.81 1583.5 C 1598.1 1588.84 1602.36 1589.62 1605.02 1593.9 C 1607.48 1597.87 1610.39 1604.23 1612.47 1608.55 C 1610.68 1608.84 1611.58 1608.83 1609.76 1608.58 C 1611.49 1611.93 1612.82 1610.35 1614.66 1611.52 C 1615.41 1612 1613 1614.26 1615.27 1617.39 C 1618.94 1618.52 1619.27 1620.42 1620.05 1624.23 C 1619.43 1624.43 1618.81 1624.64 1618.19 1624.84 C 1621.77 1631.64 1629.59 1631.92 1628.74 1637.99 L 1626.48 1638.36 C 1629.86 1649.33 1651.11 1668.04 1645.59 1683.68 C 1636.92 1679.88 1545.46 1685.65 1528.5 1683.69 C 1533.12 1684.22 1506.11 1683.1 1511.78 1682.54 L 1510.65 1685.03 L 1509.56 1685.4 L 1508.04 1683.31 C 1499.91 1683.39 1491.57 1683.83 1483.43 1684.17 C 1480.4 1682.45 1479.85 1681.88 1476.31 1681.78 L 1474.37 1684.2 C 1462.61 1684.49 1447.71 1681.7 1436.01 1682.87 C 1425.58 1683.92 1417.96 1684.54 1407.26 1682.74 C 1399.84 1681.5 1396.02 1684.77 1389.75 1685.27 L 1388.96 1683.07 C 1386.29 1682.44 1376.88 1684.19 1373.53 1684.67 L 1372.34 1682.27 C 1369.01 1682.57 1368.74 1683.67 1365.57 1686.12 C 1362.58 1685.31 1364.15 1683.43 1362.98 1683.4 C 1336.88 1682.7 1310.43 1683.53 1284.52 1683.47 C 1278.97 1683.45 1282.97 1680.41 1273.72 1683.57 C 1267.2 1685.8 1258.67 1682.16 1249.35 1683.6 L 1249.15 1685.76 L 1248.26 1686.21 L 1244.96 1683.1 C 1228.82 1686.46 1208.84 1679.85 1189.95 1685.29 L 1188.72 1685.66 C 1185.04 1680.03 1144.92 1684.97 1136.98 1684.64 L 1136.58 1682.47 C 1133.22 1681.55 1119.73 1683.98 1114.68 1684.01 L 1032.36 1684.71 C 1028.13 1684.73 1022.92 1682.84 1019.7 1682.93 C 1000.02 1683.37 980.271 1683.39 960.586 1683.79 C 957.244 1683.86 933.467 1683.72 931.988 1683.03 C 931.416 1682.09 930.844 1681.14 930.273 1680.2 C 937.014 1653.59 945.977 1625.88 953.262 1599.4 C 955.562 1591.04 959.47 1584.07 959.333 1578.45 C 959.081 1568.05 967.354 1564.09 967.991 1553.01 L 966.27 1554.01 L 965.565 1553.6 C 976.372 1531.76 982.965 1499.71 991.811 1476.44 C 992.598 1474.37 993.677 1477.11 994.646 1472.87 L 992.591 1470.9 C 1001.73 1466.11 995.818 1456.47 1001.53 1449.73 C 1000.32 1447.7 1000.52 1448.56 1000.34 1446.32 L 1004.69 1443.63 C 1004.4 1441.66 1004.23 1441.71 1003.12 1440.05 L 1010.41 1424.54 L 1008.01 1423.8 L 1008.37 1422.57 C 1010.17 1421.2 1012.75 1419.3 1013.62 1417.22 C 1017.7 1407.52 1020.73 1394.74 1024.74 1385.25 C 1031.72 1369.49 1037.36 1353.19 1042.7 1336.87 C 1044.48 1331.42 1044.91 1321.87 1049.58 1321.38 C 1050.61 1321.27 1049.59 1310.88 1049.81 1310.62 C 1052.22 1307.8 1054.55 1305.03 1056.75 1302.04 C 1050.93 1290.37 1062.83 1292.14 1062.65 1281.78 C 1062.51 1273.92 1075.3 1250.13 1078.41 1240.07 C 1080.41 1233.59 1079.45 1225.87 1082.66 1219.92 C 1083.59 1218.22 1083.6 1218.52 1084.04 1216.89 C 1086.28 1208.62 1094.29 1183.25 1091.64 1175.64 L 1090.02 1174.94 C 1087.48 1177.04 1088.31 1177.4 1087.85 1182 L 1086.57 1182.96 C 1085.61 1180.51 1085.64 1180.22 1084.06 1178.18 L 1082.25 1179.63 C 1082.66 1181.39 1082.82 1181.52 1083.77 1183 L 1082.55 1184.2 L 1079.69 1183.29 C 1069.46 1205.28 1058.23 1224.42 1051.05 1247.91 C 1047.99 1257.91 1038.83 1276.12 1033.68 1285.57 L 1035.38 1286.56 L 1035.58 1287.71 L 1032.88 1287.69 L 1031.82 1289.08 L 1032.81 1292.03 C 1031.62 1297.19 1024.28 1305.63 1022.94 1309.66 C 1015.35 1332.5 1014.77 1342.57 1002.35 1362.77 L 1003.99 1365.5 C 1002.38 1367.57 999.78 1371.86 998.771 1374.3 C 993.464 1387.19 998.471 1382.37 1000.12 1386.61 C 996.123 1385.93 997.603 1385.37 995.059 1387.11 C 995.857 1390.07 995.941 1388.99 995.477 1391.79 L 993.17 1391.21 L 992.267 1392.61 L 993.739 1395.51 C 992.262 1396.78 990.658 1397.68 988.948 1398.6 C 988.65 1402.1 988.482 1405.61 988.444 1409.12 L 986.225 1408.49 C 984.896 1415.01 977.973 1436.68 974.392 1443.61 C 973.612 1443.55 972.832 1443.49 972.052 1443.44 C 969.062 1452.18 971.748 1462.12 964.196 1467.71 L 963.095 1468.51 C 965.592 1470.7 966.714 1471.25 967.506 1474.46 C 965.075 1477.13 966.096 1473.01 961.453 1473.33 C 960.453 1477.88 961.132 1481.49 961.56 1486.14 C 959.722 1486.25 960.675 1486.16 958.702 1486.44 C 958.93 1487.78 959.143 1489.14 959.34 1490.49 C 956.726 1491.97 957.02 1491.53 954.982 1493.56 L 957.341 1496.35 C 955.676 1500.39 954.035 1504.43 952.419 1508.48 L 950.084 1508.74 L 949.172 1510.13 C 950.362 1512.12 951.3 1511.69 954.43 1512.48 C 954.564 1516.29 949.47 1515.44 949.07 1516.86 C 946.164 1527.15 943.934 1536 940.137 1546.08 C 941.593 1548.15 941.899 1548.38 942.745 1550.72 C 940.685 1552.4 938.575 1554.01 936.418 1555.56 C 936.178 1563.94 934.708 1564.8 931.777 1572.39 C 927.581 1583.25 923.427 1594.97 921.211 1606.44 C 921.818 1607.11 922.424 1607.78 923.031 1608.44 C 919.447 1616.41 913.732 1624.65 916.428 1632.55 C 914.834 1633.93 915.459 1633.04 914.795 1635.39 C 916.862 1636.24 915.918 1635.7 917.64 1637 C 916.083 1639.4 914.907 1639.25 911.768 1640.68 C 910.335 1643.64 910.648 1648.07 910.596 1651.54 C 903.991 1659.32 907.496 1656.43 908.682 1661.73 C 905.572 1661.01 906.953 1660.76 904.292 1661.65 L 904.292 1663.27 C 907.322 1664.83 907.473 1664.42 909.159 1667.05 L 908.411 1667.96 L 903.897 1665.14 L 903.14 1666 C 903.886 1667.6 904.102 1667.73 905.317 1668.98 C 903.781 1671.83 902.685 1674.01 901.331 1676.95 C 902.019 1679.19 901.953 1678.81 902.249 1681.2 C 897.298 1682.99 882.498 1683.94 877.029 1683.81 C 851.832 1683.22 826.692 1683.13 801.482 1683.47 C 789.541 1683.64 783.765 1685.59 771.934 1683.15 L 769.353 1682.75 C 766.782 1676.88 780.339 1625.63 782.749 1617.2 C 788.743 1596.22 797.312 1574.68 804.255 1553.88 C 806.62 1552.16 806.926 1551.84 808.939 1549.7 C 808.872 1549.58 807.335 1546.94 807.414 1546.75 C 831.126 1488.2 856.974 1433.4 882.015 1375.19 C 898.166 1337.65 928.844 1294.26 921.534 1250.63 C 920.484 1244.36 917.877 1236.24 916.162 1229.97 L 917.236 1228.46 C 916.636 1227.44 916.954 1227.27 917.039 1225.64 C 915.239 1222.33 912.843 1216.3 910.115 1215.12 L 908.425 1217.93 L 907.41 1217.73 L 906.737 1216.03 L 908.195 1213.45 C 906.622 1210.86 901.707 1202.36 899.669 1200.77 C 895.945 1197.85 893.655 1197.27 889.97 1193.32 L 890.871 1190.43 L 890.073 1189.67 C 887.498 1191.54 888.598 1191.13 885.589 1191.77 C 883.163 1189.06 881.102 1186.85 878.522 1184.29 C 877.168 1185.29 876.378 1185.85 875.007 1186.75 L 873.666 1185.61 L 873.973 1182.46 C 869.84 1180.71 872.452 1184.96 870.216 1183.6 C 859.263 1176.93 850.142 1170.79 837.016 1170.76 C 834.215 1171.19 835.799 1170.56 833.722 1172.43 C 817.495 1187.06 799.668 1199.71 782.422 1213.04 C 725.169 1257.32 667.81 1304.7 599.045 1329.91 C 595.125 1331.34 587.957 1335.56 584.528 1336.24 C 551.066 1342.86 512.285 1352.55 479.882 1337.3 C 478.472 1336.64 472.388 1337.05 470.525 1335.97 C 459.967 1332.64 433.996 1324.03 428.141 1314.71 C 412.606 1324.94 398.712 1319.57 403.048 1300.6 C 373.273 1280.09 346.619 1235.3 339.276 1200.04 C 335.366 1181.27 337.59 1145.22 345.785 1127.71 C 339.797 1121.57 342.103 1116.15 348.29 1111.48 C 355.486 1097.85 366.034 1077.33 375.573 1065.96 C 401.367 1035.23 431.302 1010.97 457.785 980.179 C 508.975 920.951 554.143 856.774 592.619 788.597 C 613.662 751.769 632.782 711.652 651.027 673.248 C 654.529 665.876 663.087 638.944 666.911 636.204 z" fill="rgb(253,250,250)" transform="translate(0,0)"></path>
<path d="M 837.016 1170.76 C 839.425 1161.59 847.151 1158.21 854.762 1152.68 C 881.53 1133.24 902.622 1108.09 925.691 1084.77 C 926.314 1084.14 929.556 1083.21 930.545 1082.99 C 932.964 1079.26 934.322 1076.19 936.213 1072.21 L 937.408 1072.16 L 939.018 1073.66 L 940.964 1072.74 L 940.676 1071.81 C 940.204 1070.23 940.368 1070.78 939.96 1068.85 C 943.562 1065.19 945.016 1068.02 946.973 1065.36 C 957.671 1050.83 972.75 1039.72 981.437 1023.99 C 983.695 1019.9 991.572 1023.95 992.351 1012.19 C 996.362 1011.04 993.712 1015.41 996.358 1011.5 L 995.566 1008.28 L 997.007 1006.7 L 998.971 1008.15 L 1000.13 1007.49 C 998.783 1005.29 999.399 1006.42 998.285 1004.09 L 999.657 1003.04 L 1002.65 1003.46 C 1002.9 1003.04 1004.17 999.267 1003.24 999.806 C 1016.1 992.581 1020.54 981.588 1028.2 970.253 C 1031.79 964.932 1050.02 959.339 1049.97 953.023 C 1049.87 942.827 1057.73 939.187 1062.13 930.356 C 1064.7 925.193 1072.68 924.992 1073.89 920.5 C 1073.9 919.349 1075.39 916.415 1075.92 915.397 L 1077.65 914.512 L 1080.05 915.377 C 1082.36 911.97 1081.54 911.137 1079.38 907.446 C 1082.7 905.407 1090.64 901.042 1092.56 898.469 L 1091.88 895.968 C 1098.37 886.046 1107.54 878.949 1112.84 868.277 C 1113.84 866.248 1115.6 861.652 1117.09 861.287 L 1116.71 864.597 C 1119.66 862.09 1120.35 858.402 1121.09 854.688 C 1123.42 854.303 1122.55 854.348 1124.93 854.829 C 1128.33 849.338 1121.78 851.736 1129.42 848.335 C 1129.23 846.04 1129.61 847.151 1128.1 845.074 C 1131.34 842.066 1131.47 848.703 1131.73 839.14 C 1136.8 837.616 1132.2 841.893 1137.78 838.387 C 1138.87 835.008 1139.12 834.059 1139.71 830.567 L 1144.8 828.962 C 1143.97 823.353 1150.11 818.816 1154.03 814.761 L 1153.66 812.875 C 1159.61 810.528 1157.55 807.022 1163.44 804.014 L 1166.09 805.64 L 1168.57 804.056 L 1169.75 805.032 L 1168.72 807.707 L 1171.86 808.271 C 1171.48 813.64 1172.47 826.754 1170.77 830.643 L 1167.64 831.184 L 1167.15 832.833 L 1168.81 834.844 C 1167.94 838.628 1163.03 847.291 1161.02 851.108 L 1161.49 850.755 C 1158.47 857.723 1156.19 864.014 1153.59 871.141 C 1155.37 870.839 1154.57 871.1 1156.02 870.437 C 1155.91 873.034 1156.28 871.861 1155.03 873.985 L 1152.45 873.267 C 1150.18 880.593 1148.11 887.979 1146.25 895.418 C 1140.27 898.511 1142.03 902.774 1141.73 909.683 C 1140.05 909.776 1140.88 909.928 1139.25 909.122 C 1136.58 913.198 1133.06 922.56 1131.13 927.468 C 1125.64 941.48 1117.61 952.957 1109.02 965.155 C 1108.64 965.705 1107.41 974.614 1107.15 976.268 L 1105.97 977.319 L 1103.76 976.384 L 1101.98 978.161 C 1102.55 980.333 1102.19 979.297 1103.05 981.276 C 1095.91 990.468 1088.57 1001.13 1086.64 1012.58 C 1084.81 1014.08 1084.82 1013.92 1082.48 1014.44 C 1077.32 1025.33 1074.35 1033.64 1067.41 1043.62 C 1047.01 1072.94 939.278 1217.29 917.236 1228.46 C 916.636 1227.44 916.954 1227.27 917.039 1225.64 C 915.239 1222.33 912.843 1216.3 910.115 1215.12 L 908.425 1217.93 L 907.41 1217.73 L 906.737 1216.03 L 908.195 1213.45 C 906.622 1210.86 901.707 1202.36 899.669 1200.77 C 895.945 1197.85 893.655 1197.27 889.97 1193.32 L 890.871 1190.43 L 890.073 1189.67 C 887.498 1191.54 888.598 1191.13 885.589 1191.77 C 883.163 1189.06 881.102 1186.85 878.522 1184.29 C 877.168 1185.29 876.378 1185.85 875.007 1186.75 L 873.666 1185.61 L 873.973 1182.46 C 869.84 1180.71 872.452 1184.96 870.216 1183.6 C 859.263 1176.93 850.142 1170.79 837.016 1170.76 z" fill="rgb(4,4,6)" transform="translate(0,0)"></path>
<path d="M 403.048 1300.6 C 411.123 1287.68 437.804 1276.63 442.999 1264.73 C 443.847 1262.79 444.7 1262.11 446.373 1260.9 L 448.42 1260.51 L 450.054 1262.15 C 452.455 1260.23 451.733 1257.31 452.369 1256.84 C 473.717 1240.96 489.208 1219.6 507.803 1201.01 C 514.151 1194.67 518.76 1184.58 527.442 1181.56 C 530.99 1182.68 529.461 1181.74 532.014 1184.77 C 532.639 1187.16 530.063 1204.89 528.92 1207.74 C 514.374 1243.98 481.212 1272.12 452.364 1297.17 C 444.682 1303.84 435.3 1308.49 428.141 1314.71 C 412.606 1324.94 398.712 1319.57 403.048 1300.6 z" fill="rgb(16,13,14)" transform="translate(0,0)"></path>
<path d="M 348.29 1111.48 L 350.449 1115.3 L 351.368 1114.87 C 359.301 1111.23 363.878 1111.64 372.095 1115.29 C 382.904 1120.1 378.35 1112.9 390.373 1117.68 C 400.857 1121.86 423.912 1125.9 431.928 1134.18 C 439.656 1157.99 384.512 1139.48 380.526 1140.73 L 380.542 1142.44 C 374.687 1142.65 373.727 1136.51 368.602 1135.54 L 365.15 1137.26 C 357.213 1133.42 354.491 1131.19 345.785 1127.71 C 339.797 1121.57 342.103 1116.15 348.29 1111.48 z" fill="rgb(16,13,14)" transform="translate(0,0)"></path>
<path d="M 1446.87 1230.02 L 1447.72 1228.34 L 1449.78 1228.36 C 1452.99 1231.86 1457.53 1241.6 1460.04 1246.39 C 1458.01 1248.31 1458.2 1248.39 1455.5 1248.9 C 1450.14 1246.57 1447.54 1235.48 1446.87 1230.02 z" fill="rgb(181,169,227)" transform="translate(0,0)"></path>
<path d="M 791.046 717.714 L 792.214 718.387 C 799.076 717.15 807.947 716.358 813.905 720.155 C 813.997 725.156 813.255 725.455 816.554 729.46 C 814.536 735.533 794.899 742.978 788.989 739.679 C 785.485 745.322 785.14 740.258 784.226 740.671 C 779.188 742.948 772.865 748.32 767.006 746.572 C 762.853 745.333 762.629 746.448 760.691 749.551 C 756.98 748.86 751.467 749.087 751.165 753.9 L 753.165 754.024 C 754.784 752.083 754.027 752.616 756.327 751.599 C 762.368 755.52 766.578 752.802 772.573 758.206 C 784.752 768.746 790.911 787.765 786.283 803.346 C 779.295 826.874 749.463 843.018 729.004 824.803 L 726.844 826.155 C 718.697 822.666 711.559 813.57 708.69 805.37 C 706.767 796.656 707.808 786.168 709.941 777.504 C 711.091 772.831 714.507 770.508 718.021 767.287 L 718.056 764.41 C 716.107 763.268 715.539 765.342 712.99 764.773 C 707.025 763.443 686.449 782.713 680.824 782.918 C 680.564 782.928 678.643 781.326 677.543 781.197 C 677.727 783.59 677.734 784.237 677.546 786.627 L 675.961 787.776 L 674.016 785.946 C 671.434 786.025 670.097 787.605 667.932 789.299 L 666.895 790.12 L 664.452 789.75 C 661.808 787.513 661.271 787.627 659.982 784.661 C 662.18 784.318 661.116 784.401 663.748 785.852 L 663.921 784.942 L 660.544 780.697 C 661.459 779.056 662.462 777.466 663.549 775.933 C 677.248 756.521 713.687 737.607 736.604 729.762 C 742.346 728.606 749.633 727.629 754.795 724.897 C 764.799 719.602 778.594 720.214 789.193 718.1 L 791.046 717.714 z" fill="rgb(4,4,6)" transform="translate(0,0)"></path>
<path d="M 939.675 538.86 L 941.093 536.02 C 944.744 534.858 943.741 535.373 947.181 535.405 C 959.564 535.522 972.833 531.414 984.643 528.969 L 984.544 530.928 C 991.509 530.227 1001.45 525.127 1007.63 524.281 C 1019.08 522.902 1031.28 523.72 1042.31 520.074 C 1045.45 519.037 1052.42 520.35 1055.97 519.568 C 1058.88 518.928 1073.67 518.273 1075.37 517.592 C 1085.06 513.696 1177.01 519.78 1178.12 519.098 L 1178.8 517.118 C 1182.16 516.918 1189.48 522.894 1194.35 523.958 C 1218.83 529.306 1244.43 536.659 1267.81 545.75 C 1276.39 549.085 1287.3 551.68 1295.67 555.372 C 1319.39 565.841 1342.33 581.543 1361.94 598.422 C 1366.26 602.145 1376.11 610.124 1376.79 614.707 C 1376.83 614.982 1377.96 616.703 1378.08 616.889 C 1380.17 614.196 1379.05 614.581 1381.53 613.835 L 1382.68 614.959 C 1381.76 618.287 1380.99 622.208 1384 624.84 C 1393.85 626.282 1393.88 634.814 1400.1 643.302 C 1408.75 655.097 1423.43 661.442 1425.49 675.62 L 1429.68 677.505 L 1428.32 680.403 C 1437.32 690.484 1442.63 696.957 1448.8 709.238 C 1449.63 710.904 1453.92 711.162 1456.19 714.508 C 1454.62 716.944 1455.2 716.172 1452.89 718.08 L 1453.47 719.791 C 1455.08 720.476 1457.09 721.327 1459.49 722.347 C 1463.14 727.139 1467.61 733.008 1471.19 737.712 L 1469.87 739.7 L 1470.57 740.985 L 1474.24 741.796 C 1475.65 744.477 1477.98 755.207 1477.71 757.991 L 1475.02 758.144 C 1476.03 759.276 1481.78 764.085 1481.78 763.853 C 1481.67 776.39 1492.73 773.889 1494.91 777.047 C 1492.66 778.044 1492.04 777.581 1489.32 777.298 L 1488.71 778.497 L 1489.95 779.774 L 1493.48 778.886 C 1497.48 782.559 1491.58 783.862 1498.28 784.296 L 1498.66 785.795 L 1496.25 786.757 L 1500.84 790.267 C 1499.48 791.891 1500.25 791.169 1497.23 791.574 C 1497.6 795.559 1501.99 797.252 1503.96 802.571 L 1502.03 802.7 C 1502.29 803.536 1505.21 811.88 1505.44 811.631 C 1502.52 814.741 1510.12 818.056 1511.74 820.729 C 1511.25 821.787 1510.75 822.845 1510.26 823.903 C 1511.89 828.222 1515.52 834.907 1517.59 838.55 L 1520.03 838.081 L 1521.24 839.641 C 1520.07 840.74 1520.84 840.295 1518.74 840.535 L 1519.15 842.994 C 1521.18 844.045 1521.39 844.011 1523.65 844.52 L 1521.37 847.514 C 1523.09 848.895 1522.07 848.438 1524.76 848.234 C 1524.57 852.906 1522.24 849.458 1522.91 852.006 C 1523.7 854.972 1528.08 856.79 1526.42 858.928 L 1525.04 859.528 C 1526.48 862.258 1525.86 861.258 1528.64 863.254 C 1529.21 867.356 1529.82 871.453 1530.47 875.543 C 1531.04 879.027 1533.9 881.229 1536.5 883.712 C 1538.84 892.796 1535.22 892.809 1541.41 906.326 C 1543.58 906.938 1542.7 906.837 1545.03 906.326 C 1546.38 909.551 1545.58 910.333 1543.45 913.323 C 1544.51 917.277 1546.68 922.189 1547.46 925.613 L 1545.17 927.078 C 1547.05 930.219 1549.17 930.627 1552.6 932.077 C 1553.95 934.62 1553.7 933.313 1553.49 936.118 L 1550.36 934.126 L 1549.15 935.071 L 1549.27 937.079 L 1552.76 938.437 C 1552.59 941.706 1548.01 947.466 1553.99 951.938 L 1556.99 951.013 C 1558.68 953.79 1555.05 959.291 1556.71 963.445 C 1559.57 970.609 1563.78 977.809 1567.4 984.619 C 1567.4 984.62 1566.25 992.733 1566.25 992.734 C 1568.79 994.693 1572.1 994.144 1573.73 997.012 C 1568.53 997.344 1569.29 994.888 1567.18 996.983 C 1569.56 1001.52 1571.4 998.012 1572.72 1002.86 C 1570.39 1002.7 1569.89 1001.81 1567.62 1000.32 C 1565.85 1005.07 1571.14 1014.08 1573.45 1018.54 L 1579.05 1018.61 L 1579.56 1019.7 C 1577.23 1021.96 1573.14 1025.34 1572.13 1028.18 C 1574.51 1030.29 1576.36 1030.26 1579.73 1031.16 L 1576.33 1031.86 L 1576.1 1033.15 L 1578.02 1034.45 L 1580.53 1033.83 L 1581.19 1034.82 L 1578.59 1037.38 L 1579.34 1038.59 L 1582.98 1038.51 L 1583.45 1039.73 L 1580.64 1042.49 C 1580.89 1045.47 1582.35 1046.9 1584.12 1049.35 C 1582.91 1053.22 1581.34 1056.7 1582.03 1060.62 C 1583.44 1062.32 1583.81 1062.71 1585.48 1064.17 L 1583.3 1064 L 1583.6 1065.38 L 1588.89 1068.5 L 1588.03 1069.31 L 1584.53 1069.05 C 1583.63 1071.7 1584.13 1070.87 1585.02 1074.45 L 1589.33 1078.42 C 1588.19 1080.34 1588.69 1079.66 1586.78 1081.03 L 1587.91 1081.88 L 1590.99 1081.14 L 1592.42 1082.75 L 1590.99 1084.02 L 1589.45 1085.44 C 1590.4 1086.91 1591.15 1087.99 1592.21 1089.38 C 1589.18 1091.55 1589.8 1090.2 1589.23 1093.04 C 1591.86 1094.69 1592.23 1094.48 1595.3 1095.23 L 1594.99 1095.69 L 1589.55 1096.14 L 1589.67 1097.24 L 1590.79 1097.94 C 1593.52 1099.65 1595.21 1100.21 1596.33 1103.11 C 1595.72 1108.82 1590.68 1110.35 1591.41 1114.93 C 1591.62 1116.31 1598.91 1122.4 1597.47 1124.36 C 1596.32 1125.91 1595.76 1129.5 1596.15 1131.46 C 1598.27 1131.46 1597.2 1131.62 1599.37 1130.89 C 1598.9 1135.3 1595.54 1132.08 1598.49 1135.8 C 1603.65 1142.3 1597.77 1152.5 1605.02 1154.42 C 1603.18 1155.51 1602.96 1155.61 1601.46 1157.2 C 1603.14 1159.45 1602.09 1158.66 1604.75 1159.63 C 1604.31 1162.37 1604.26 1162.14 1603.26 1164.8 C 1605.37 1172.39 1608.36 1165.98 1606.69 1171 C 1604.53 1177.5 1603.8 1180.62 1605.7 1187.35 C 1607.73 1187.58 1606.86 1187.27 1608.35 1188.09 C 1607.77 1194.78 1606.1 1200.85 1611.6 1205.66 C 1611.32 1210.68 1610.71 1215.98 1611.6 1220.86 L 1613.87 1220.29 L 1614.12 1222.35 C 1612 1224.23 1611.31 1224.51 1608.88 1225.88 L 1608.47 1227.63 L 1613.96 1225.82 L 1614.89 1226.57 C 1612.29 1230.88 1608.88 1227.86 1609.1 1231.69 L 1612.83 1232.11 C 1612.88 1234.6 1612.91 1233.9 1612.35 1236.33 C 1613.57 1237.25 1614.48 1237.93 1615.75 1238.78 L 1614.75 1246.45 L 1616.17 1247.51 L 1619.18 1246.54 L 1619.52 1247.6 C 1616.28 1250.44 1616.99 1248.76 1616.73 1252.55 L 1617.53 1253.9 C 1621.27 1253.1 1619.86 1252.65 1622.55 1253.91 L 1622.13 1255.26 L 1618.66 1256.67 L 1618.2 1258.47 C 1620.01 1259.28 1618.96 1259.04 1621.42 1258.82 L 1620.15 1264.5 L 1621.03 1265.82 L 1624.03 1266.23 L 1624.15 1267.43 L 1622.17 1269.56 C 1623.93 1279.4 1625.84 1275.35 1623.29 1284.9 C 1625.02 1285.62 1624.15 1285.4 1625.89 1285.59 C 1624.78 1288.15 1625.4 1287.22 1622.94 1288.99 C 1626 1293.55 1628.06 1291.2 1628.46 1293.76 L 1626.7 1293.6 C 1624.8 1293.45 1624.28 1293.41 1622.47 1293.49 C 1624.09 1295.5 1625.43 1295.73 1627.85 1296.75 C 1629.62 1300.79 1627.65 1303.82 1625.92 1307.62 C 1630.12 1322.74 1631.99 1318.69 1631.6 1336.09 L 1631.77 1335.69 L 1632.7 1340.65 C 1634.35 1341.73 1634.15 1341.63 1636.03 1342.47 C 1627.06 1352.2 1636.42 1364.69 1639.83 1372.36 C 1641.69 1376.54 1640.72 1407.97 1643.65 1411.48 L 1645.44 1411.38 C 1645.79 1414.9 1643.33 1413.9 1643.72 1415.33 C 1647.11 1427.85 1651.08 1440.32 1651.69 1453.39 C 1651.91 1458.26 1655.47 1463.91 1655.71 1469.03 C 1658.6 1486.26 1661.75 1506.59 1666.18 1523.44 C 1672.17 1546.24 1679.58 1568.58 1684.64 1591.78 C 1687.17 1603.43 1693.07 1600.47 1689.84 1614.28 C 1692.87 1620.87 1691.13 1616.22 1694.76 1619.93 L 1693.57 1621.53 C 1695.82 1639.78 1712.34 1670.48 1711.97 1683.3 C 1694.09 1682.73 1676.23 1683.36 1658.35 1683.35 C 1655.38 1683.35 1647.59 1684.04 1645.59 1683.68 C 1651.11 1668.04 1629.86 1649.33 1626.48 1638.36 L 1628.74 1637.99 C 1629.59 1631.92 1621.77 1631.64 1618.19 1624.84 C 1618.81 1624.64 1619.43 1624.43 1620.05 1624.23 C 1619.27 1620.42 1618.94 1618.52 1615.27 1617.39 C 1613 1614.26 1615.41 1612 1614.66 1611.52 C 1612.82 1610.35 1611.49 1611.93 1609.76 1608.58 C 1611.58 1608.83 1610.68 1608.84 1612.47 1608.55 C 1610.39 1604.23 1607.48 1597.87 1605.02 1593.9 C 1602.36 1589.62 1598.1 1588.84 1595.81 1583.5 L 1598.03 1584.59 L 1598.57 1583.62 C 1597.36 1580.28 1594.14 1569.53 1591.96 1568.08 L 1591.48 1569.73 L 1590.44 1569.2 C 1588.74 1566.08 1587.22 1563.78 1586.47 1560.31 C 1588.92 1562.47 1587.8 1562.02 1590.75 1562.72 L 1591.9 1560.6 C 1592.06 1557.56 1592.05 1552.89 1588.87 1551.35 C 1588.53 1554.54 1589.09 1555.24 1587.32 1556.87 C 1584.72 1555.07 1584.93 1555.13 1583.36 1552.34 C 1584.2 1550.42 1585.1 1548.53 1586.04 1546.66 C 1584.44 1543.73 1583.93 1543.53 1581.51 1541.31 L 1579.38 1542.6 C 1577.68 1539.02 1574.35 1532.54 1573.36 1528.98 L 1576.09 1530.65 L 1576.41 1530.21 C 1572.26 1524.29 1566.65 1516.53 1563.12 1510.32 C 1560.31 1505.31 1559.14 1498.28 1556.28 1493.44 C 1547.72 1478.91 1544.46 1462.68 1538.04 1447.51 C 1532.6 1434.66 1524.44 1421.93 1518.11 1409.21 C 1518.4 1404.53 1518.68 1403.92 1515.56 1400.73 C 1512.37 1398.75 1507.43 1384.61 1505.58 1380.03 L 1507.12 1380.04 C 1508.74 1377.96 1508.9 1377.89 1509.91 1375.49 L 1502.63 1362.48 L 1501.38 1362.14 C 1501.63 1365.09 1503.43 1366.59 1505.42 1369.45 L 1504.9 1371.3 L 1503.48 1371.6 C 1496.31 1361.94 1495.82 1351.64 1491.91 1341.26 C 1487.93 1330.73 1478.89 1317.49 1476.32 1306.56 L 1478.36 1306.25 C 1477.88 1301.34 1469.3 1299.51 1470.42 1290.63 L 1473.01 1289.48 C 1471.13 1287.67 1469.53 1287.02 1467.24 1285.83 C 1467.13 1283.52 1467.04 1283.31 1466.04 1281.3 L 1465.19 1279.64 C 1467.84 1280.44 1466.84 1280.52 1469.3 1280.02 C 1468.23 1276.19 1468.15 1277.18 1464.01 1274.2 C 1460.07 1263.73 1460.61 1256.8 1460.04 1246.39 C 1457.53 1241.6 1452.99 1231.86 1449.78 1228.36 L 1447.72 1228.34 L 1446.87 1230.02 C 1445.96 1228.43 1445.34 1227.42 1444.68 1225.7 L 1442.04 1218.61 L 1442.91 1217.7 L 1447.53 1219.47 L 1448.12 1218.36 C 1446.4 1213.83 1442.64 1211.44 1438.77 1208.45 C 1438.48 1204.74 1438.15 1201.04 1437.78 1197.35 C 1435.45 1196.08 1434.69 1195.88 1432.86 1194.02 C 1431.88 1189.19 1431.78 1191.55 1433.45 1186.68 C 1428.7 1183.24 1429.03 1184.13 1427.69 1179.54 L 1428.33 1178.56 L 1431.85 1182.17 C 1431.38 1177.89 1428.74 1178.12 1427.93 1176.6 C 1419.2 1160.14 1416.68 1137.17 1409.22 1119.72 C 1405.34 1110.63 1400.1 1107.64 1399.05 1098.43 C 1398.5 1093.6 1398.8 1089.61 1394.49 1086.92 C 1388.59 1085.32 1391.17 1073.26 1389.38 1071.86 C 1378.33 1063.25 1383.62 1062.36 1381.66 1055.2 C 1379.02 1045.56 1369.84 1030.16 1364.6 1021.43 C 1365.02 1016.88 1365.53 1011.82 1363.7 1007.52 C 1363.01 1007.48 1362.32 1007.45 1361.62 1007.42 L 1359.77 1007.35 C 1358.89 999.758 1359.16 993.194 1355.38 986.678 L 1354.07 986.376 L 1352.28 988.868 L 1351.25 988.53 C 1352.41 983.193 1352.7 980.677 1349.65 975.982 C 1346.75 971.515 1341.33 955.157 1338.37 952.191 L 1335.95 953.246 L 1334.86 952.532 C 1336.39 949.139 1336.93 947.744 1338.05 944.195 C 1337 941.488 1335.18 938.197 1332.17 937.938 C 1331.47 939.893 1331.08 941.003 1330.15 942.852 C 1328.19 940.251 1327.47 937.453 1326.37 934.361 C 1327.31 933.293 1328.24 932.378 1329.31 931.45 C 1327.99 927.127 1325.09 926.485 1322.97 922.562 L 1325.3 921.383 L 1324.48 920.143 C 1322.38 920.206 1321.78 920.176 1319.69 919.917 C 1318.16 917.073 1318.23 916.738 1317.57 913.673 L 1319.85 914.425 L 1320.48 912.929 C 1317.75 899.566 1317.75 903.981 1309.33 893.42 C 1311.21 894.566 1311.43 894.679 1313.51 895.421 C 1313.34 890.448 1305.78 884.948 1302.31 878.424 C 1305.01 879.923 1304.34 879.924 1307.18 880.429 C 1307.23 873.134 1298.57 869.913 1296.32 863.818 L 1298.68 863.666 L 1299.27 862.936 C 1291.53 850.596 1284.71 837.896 1275.78 826.389 C 1273.09 822.583 1272.74 822.093 1271.04 817.815 L 1271.94 817.418 C 1274.81 820.587 1275.49 821.959 1277.69 825.707 C 1281.48 815.427 1267.94 815.392 1267.76 810.281 C 1268.93 810.3 1270 810.28 1271.16 810.258 C 1268.78 805.507 1263.03 803.906 1260.86 800.099 C 1255.06 789.9 1251.55 778.548 1245.56 768.338 C 1244.27 766.137 1242.43 756.815 1241.58 753.549 C 1238.49 752.422 1238.53 752.565 1236.02 750.504 C 1237.56 749.859 1237.26 750.219 1239.44 750.557 C 1238.13 747.783 1238.26 747.949 1235.95 745.937 L 1232.91 746.185 L 1231.92 744.55 L 1234.13 744.586 L 1234.5 743.659 C 1231.84 738.631 1231.11 737.188 1227.43 732.926 C 1224.13 732.874 1222.75 733.262 1220.83 730.613 L 1223.96 730.554 L 1224.85 729.629 C 1224.65 729.302 1210.58 715.887 1208.28 713.565 C 1201.21 706.424 1180.22 676.984 1174.15 672.538 C 1172.92 674.647 1173.76 674.063 1171.98 674.717 C 1169.52 672.09 1168.34 671.207 1167.05 667.802 C 1168.56 665.877 1168.05 666.896 1168.72 664.807 C 1163.88 661.512 1168.68 665.49 1163.34 665.606 C 1163.09 664.324 1162.09 660.094 1161.07 659.395 C 1147.31 650.498 1135.43 636.973 1122.1 627.828 C 1114.37 622.529 1114.92 625.864 1107.52 617.039 C 1103.87 612.677 1089.62 602.25 1084.71 599.526 L 1082.75 601.22 L 1080.09 599.471 L 1079.91 597.765 C 1077.44 595.348 1065.95 590.365 1062.36 588.594 C 1029.35 572.316 995.615 558.923 960.303 548.51 C 953.498 546.503 948.902 540.487 939.675 538.86 z" fill="rgb(149,101,225)" transform="translate(0,0)"></path>
<path d="M 804.963 1843.12 C 812.067 1840.43 940.204 1843.15 959.745 1843.09 C 974.573 1843.05 989.384 1841.79 1004.18 1841.58 C 1006.05 1841.56 1007.16 1841.96 1008.89 1842.56 C 1012.43 1843.77 1064.52 1842.16 1073.82 1842.12 C 1156.39 1841.56 1238.97 1841.98 1321.53 1843.39 C 1353.43 1844.03 1374.31 1839.45 1408.96 1844.41 C 1415.97 1839.82 1577.5 1843.58 1599.3 1843.47 C 1608.33 1843.43 1691.1 1841.49 1696.64 1843.7 C 1697.63 1862.94 1697.92 1879.23 1699.58 1898.62 C 1701.05 1915.65 1705.4 1949.15 1704.94 1964.76 C 1712.97 1963.71 1769.87 1962.45 1775.11 1965.5 C 1779.14 1972.7 1772.23 1984.44 1766.66 1989.28 C 1770.66 1989.9 1776.84 1990.61 1780.55 1991.88 C 1804.81 2000.25 1819.69 2022.79 1820.02 2048 L 679.809 2048 C 680.611 2012.65 699.145 2003.36 725.98 1989.05 C 724.869 1988.27 723.766 1987.48 722.671 1986.68 C 702.771 1972.12 728.038 1964.04 740.653 1965.36 C 746.03 1965.92 743.622 1963.91 747.437 1967.88 C 749.371 1966.93 749.269 1966.84 750.709 1965.25 C 757.614 1964.37 776.7 1964.56 783.687 1965.39 C 783.927 1950.39 790.964 1934.94 793.682 1921.62 C 796.328 1908.65 808.555 1851.76 804.963 1843.12 z" fill="rgb(149,101,225)" transform="translate(0,0)"></path>
<path d="M 1704.94 1964.76 C 1712.97 1963.71 1769.87 1962.45 1775.11 1965.5 C 1779.14 1972.7 1772.23 1984.44 1766.66 1989.28 C 1770.66 1989.9 1776.84 1990.61 1780.55 1991.88 C 1804.81 2000.25 1819.69 2022.79 1820.02 2048 L 679.809 2048 C 680.611 2012.65 699.145 2003.36 725.98 1989.05 C 724.869 1988.27 723.766 1987.48 722.671 1986.68 C 702.771 1972.12 728.038 1964.04 740.653 1965.36 C 746.03 1965.92 743.622 1963.91 747.437 1967.88 C 749.371 1966.93 749.269 1966.84 750.709 1965.25 C 757.614 1964.37 776.7 1964.56 783.687 1965.39 C 789.044 1964.15 805.246 1966.21 811.802 1965.3 C 810.682 1965.46 814.402 1967.53 816.27 1967.81 C 816.593 1967.54 818.862 1965.54 819.204 1965.53 C 843.899 1965 868.055 1964.51 893.091 1965.17 C 936.121 1966.3 981.161 1963.07 1024.07 1964.42 L 1026 1966.71 C 1026.33 1966.23 1026.58 1965.68 1026.99 1965.26 C 1028.67 1963.54 1059.31 1964.78 1065.02 1964.71 C 1109.15 1964.17 1153.33 1964.64 1197.47 1964.65 C 1208.19 1964.65 1218.97 1964.95 1229.68 1964.66 C 1234.87 1964.52 1240.35 1963.14 1245.48 1963.47 C 1248.48 1963.66 1251.23 1965.2 1254.18 1965.67 C 1259.03 1966.46 1267.24 1964.44 1272.48 1964.32 C 1293.47 1963.82 1315.36 1963.31 1336.14 1966.5 C 1338.82 1966.91 1338.33 1965.29 1340.45 1964.39 C 1342.23 1963.63 1348.78 1964.39 1351.19 1964.4 C 1369.25 1964.43 1387.71 1963.56 1405.7 1964.28 C 1411.7 1964.52 1421.82 1967.18 1427.29 1965.62 C 1436.51 1963 1445.94 1964.52 1455.52 1964.42 C 1476.54 1964.18 1497.55 1964.51 1518.55 1963.63 C 1527.97 1963.24 1536.69 1966.65 1545.96 1966.56 C 1546.28 1964.79 1545.93 1965.59 1546.99 1964.14 C 1573.95 1965.28 1607 1964.11 1634.35 1964.33 L 1685.22 1964.24 C 1689.57 1964.24 1702.27 1964.94 1704.94 1964.76 z" fill="rgb(149,101,225)" transform="translate(0,0)"></path>
<path d="M 1704.94 1964.76 C 1712.97 1963.71 1769.87 1962.45 1775.11 1965.5 C 1779.14 1972.7 1772.23 1984.44 1766.66 1989.28 L 1765.83 1989.6 L 1763.94 1988.32 C 1738.45 1989.37 1711.38 1988.27 1685.67 1988.36 L 1633.12 1988.4 C 1621.9 1988.48 1612.02 1990.54 1601.36 1986.19 C 1599.94 1987.04 1599.18 1987.62 1597.99 1988.7 C 1591.25 1988.53 1577.38 1988.21 1570.11 1988.24 C 1569.24 1987.5 1568.37 1986.75 1567.49 1986 C 1561.8 1985.81 1564.28 1988.66 1558.01 1988.51 C 1527.16 1987.77 1496.14 1988.99 1465.34 1988.25 C 1465.26 1988.25 1462.49 1989.89 1462.75 1989.65 C 1460.71 1991.58 1455.81 1987.26 1453.14 1987.69 C 1442.5 1988.89 1432.05 1987.7 1421.35 1987.89 C 1369.32 1988.5 1317.29 1988.76 1265.25 1988.67 C 1254.87 1988.69 1242.58 1986.97 1232.99 1987.67 C 1223.72 1988.36 1215.61 1988.24 1206.52 1988.25 L 1157.89 1988.29 L 952.939 1987.87 C 936.152 1987.71 917.46 1989.19 900.009 1988.89 C 865.6 1988.29 831.262 1988.54 796.862 1988.89 C 781.302 1989.12 765.74 1989.18 750.179 1989.07 C 744.643 1989.04 739.378 1989.86 734.218 1988.87 C 731.026 1988.61 731.253 1988.56 728.615 1986.67 L 725.98 1989.05 C 724.869 1988.27 723.766 1987.48 722.671 1986.68 C 702.771 1972.12 728.038 1964.04 740.653 1965.36 C 746.03 1965.92 743.622 1963.91 747.437 1967.88 C 749.371 1966.93 749.269 1966.84 750.709 1965.25 C 757.614 1964.37 776.7 1964.56 783.687 1965.39 C 789.044 1964.15 805.246 1966.21 811.802 1965.3 C 810.682 1965.46 814.402 1967.53 816.27 1967.81 C 816.593 1967.54 818.862 1965.54 819.204 1965.53 C 843.899 1965 868.055 1964.51 893.091 1965.17 C 936.121 1966.3 981.161 1963.07 1024.07 1964.42 L 1026 1966.71 C 1026.33 1966.23 1026.58 1965.68 1026.99 1965.26 C 1028.67 1963.54 1059.31 1964.78 1065.02 1964.71 C 1109.15 1964.17 1153.33 1964.64 1197.47 1964.65 C 1208.19 1964.65 1218.97 1964.95 1229.68 1964.66 C 1234.87 1964.52 1240.35 1963.14 1245.48 1963.47 C 1248.48 1963.66 1251.23 1965.2 1254.18 1965.67 C 1259.03 1966.46 1267.24 1964.44 1272.48 1964.32 C 1293.47 1963.82 1315.36 1963.31 1336.14 1966.5 C 1338.82 1966.91 1338.33 1965.29 1340.45 1964.39 C 1342.23 1963.63 1348.78 1964.39 1351.19 1964.4 C 1369.25 1964.43 1387.71 1963.56 1405.7 1964.28 C 1411.7 1964.52 1421.82 1967.18 1427.29 1965.62 C 1436.51 1963 1445.94 1964.52 1455.52 1964.42 C 1476.54 1964.18 1497.55 1964.51 1518.55 1963.63 C 1527.97 1963.24 1536.69 1966.65 1545.96 1966.56 C 1546.28 1964.79 1545.93 1965.59 1546.99 1964.14 C 1573.95 1965.28 1607 1964.11 1634.35 1964.33 L 1685.22 1964.24 C 1689.57 1964.24 1702.27 1964.94 1704.94 1964.76 z" fill="rgb(4,4,6)" transform="translate(0,0)"></path>
<path d="M 728.615 1986.67 L 727.266 1983.45 C 729.366 1981.21 728.127 1981.95 731.133 1981.19 C 734.469 1982.88 733.654 1981.64 734.758 1984.3 L 734.218 1988.87 C 731.026 1988.61 731.253 1988.56 728.615 1986.67 z" fill="rgb(16,13,14)" transform="translate(0,0)"></path>
<path d="M 796.643 1807.99 C 764.347 1806.52 734.706 1815.83 710.278 1792.81 C 699.955 1783.13 694.17 1769.56 694.333 1755.4 C 694.399 1739.86 700.972 1727 711.919 1716.41 C 726.662 1702.14 741.616 1700.89 760.849 1701.34 C 762.562 1703.68 762.506 1704.24 765.144 1705.09 C 765.654 1704.97 766.158 1704.82 766.673 1704.73 C 769.003 1704.29 770.385 1705.21 772.467 1706.09 C 779.553 1709.11 828.187 1705.01 843.754 1707.77 C 845.439 1708.07 845.858 1707.57 847.348 1707.01 C 850.003 1706 912.238 1707.74 921.332 1707.73 C 954.961 1707.69 988.514 1706.99 1022.16 1707.25 C 1027.09 1707.29 1031.99 1706.14 1036.95 1706.14 C 1133.82 1705.35 1230.7 1706.06 1327.56 1708.27 L 1328.94 1705.25 C 1336.36 1707.76 1332.2 1708.22 1340.55 1707.83 C 1373.99 1706.25 1408.54 1705.86 1441.98 1706.94 C 1455.29 1707.37 1467.63 1704.63 1479.52 1707.6 C 1482.17 1708.26 1493.19 1705.69 1497.67 1705.31 L 1497.4 1702.49 L 1498.8 1702.14 C 1504.73 1708.75 1503.05 1707.72 1512.25 1707.21 C 1518.68 1706.84 1524.28 1704.66 1530.22 1707.58 C 1535.45 1710.15 1544.35 1704.43 1550.52 1706.5 C 1588.03 1708.71 1625.9 1706.78 1663.46 1706.59 C 1672.4 1706.54 1715.53 1709.32 1720.89 1706.57 C 1743.12 1704.46 1759.55 1700.8 1778.69 1716.41 C 1801.63 1735.13 1804.53 1768.18 1785.22 1790.49 C 1764.32 1814.63 1727.17 1807.39 1698.86 1806 C 1700.01 1810.82 1696.68 1834.84 1696.64 1843.7 C 1691.1 1841.49 1608.33 1843.43 1599.3 1843.47 C 1577.5 1843.58 1415.97 1839.82 1408.96 1844.41 C 1374.31 1839.45 1353.43 1844.03 1321.53 1843.39 C 1238.97 1841.98 1156.39 1841.56 1073.82 1842.12 C 1064.52 1842.16 1012.43 1843.77 1008.89 1842.56 C 1007.16 1841.96 1006.05 1841.56 1004.18 1841.58 C 989.384 1841.79 974.573 1843.05 959.745 1843.09 C 940.204 1843.15 812.067 1840.43 804.963 1843.12 L 802.766 1841.44 C 799.851 1835.48 795.546 1813.33 796.643 1807.99 z" fill="rgb(149,101,225)" transform="translate(0,0)"></path>
<path d="M 796.643 1807.99 C 812.589 1805.54 846.051 1806.56 863.629 1806.55 L 987.449 1806.5 L 1246.68 1806.83 C 1290.25 1806.93 1331.38 1806.21 1375.36 1807.27 C 1381.84 1802.49 1383.63 1807.07 1395.48 1806.84 C 1427.64 1806.23 1460.49 1806.37 1492.7 1806.91 C 1493.59 1807.66 1494.47 1808.42 1495.36 1809.17 C 1495.91 1808.38 1496.85 1806.57 1498.02 1806.54 C 1512.73 1806.26 1527.53 1807.26 1542.21 1807.26 L 1628.73 1806.89 C 1646.26 1806.7 1666.23 1805.77 1683.5 1806.9 C 1685.05 1805.17 1684.89 1805.21 1687.12 1804.58 C 1688.94 1805.81 1690.6 1806.87 1692.47 1808.02 C 1693.28 1807.17 1694.07 1806.32 1694.85 1805.46 L 1698.86 1806 C 1700.01 1810.82 1696.68 1834.84 1696.64 1843.7 C 1691.1 1841.49 1608.33 1843.43 1599.3 1843.47 C 1577.5 1843.58 1415.97 1839.82 1408.96 1844.41 C 1374.31 1839.45 1353.43 1844.03 1321.53 1843.39 C 1238.97 1841.98 1156.39 1841.56 1073.82 1842.12 C 1064.52 1842.16 1012.43 1843.77 1008.89 1842.56 C 1007.16 1841.96 1006.05 1841.56 1004.18 1841.58 C 989.384 1841.79 974.573 1843.05 959.745 1843.09 C 940.204 1843.15 812.067 1840.43 804.963 1843.12 L 802.766 1841.44 C 799.851 1835.48 795.546 1813.33 796.643 1807.99 z" fill="rgb(4,4,6)" transform="translate(0,0)"></path>
<metadata><recraft-signature>{"signed_by": "recraft", "signature_b64": "/csmaMQbaSHBdN6W7t1WO8OweiuVHKqzXISUM+ikRdI2dBQlBl3hr57XOpkImfi9LaZKXxrhPeS/9KOdOsZCDA==", "signing_algo": "Ed25519", "generation_timestamp": 1765461156, "identifier": "5ab02348-6f92-4225-bc1e-1c475923a332"}</recraft-signature></metadata></svg>